<?xml version="1.0" encoding="UTF-8" standalone="no"?>
<!-- Created with Inkscape (http://www.inkscape.org/) -->

<svg
   xmlns:dc="http://purl.org/dc/elements/1.1/"
   xmlns:cc="http://creativecommons.org/ns#"
   xmlns:rdf="http://www.w3.org/1999/02/22-rdf-syntax-ns#"
   xmlns:svg="http://www.w3.org/2000/svg"
   xmlns="http://www.w3.org/2000/svg"
   xmlns:xlink="http://www.w3.org/1999/xlink"
   xmlns:sodipodi="http://sodipodi.sourceforge.net/DTD/sodipodi-0.dtd"
   xmlns:inkscape="http://www.inkscape.org/namespaces/inkscape"
   width="900"
   height="500"
   id="svg2"
   version="1.1"
   inkscape:version="0.48.4 r9939"
   sodipodi:docname="drawing.svg"
   inkscape:export-filename="/home/it/Other/regsys/registration-system/other/drawing.png"
   inkscape:export-xdpi="143.96001"
   inkscape:export-ydpi="143.96001">
  <defs
     id="defs4">
    <linearGradient
       id="linearGradient6412">
      <stop
         style="stop-color:#e2aa00;stop-opacity:1;"
         offset="0"
         id="stop6414" />
      <stop
         style="stop-color:#b88815;stop-opacity:1;"
         offset="1"
         id="stop6416" />
    </linearGradient>
    <linearGradient
       id="linearGradient6356">
      <stop
         style="stop-color:#2fcdff;stop-opacity:0.57731956;"
         offset="0"
         id="stop6358" />
      <stop
         style="stop-color:#47c3ff;stop-opacity:1;"
         offset="1"
         id="stop6360" />
    </linearGradient>
    <linearGradient
       id="linearGradient6304">
      <stop
         style="stop-color:#00a62f;stop-opacity:1;"
         offset="0"
         id="stop6306" />
      <stop
         style="stop-color:#47b53a;stop-opacity:1;"
         offset="1"
         id="stop6308" />
    </linearGradient>
    <linearGradient
       inkscape:collect="always"
       xlink:href="#linearGradient6304"
       id="linearGradient6312"
       x1="-88.5"
       y1="298.55051"
       x2="972.5"
       y2="298.55051"
       gradientUnits="userSpaceOnUse" />
    <radialGradient
       inkscape:collect="always"
       xlink:href="#linearGradient6356"
       id="radialGradient6364"
       cx="400.5"
       cy="271.25873"
       fx="400.5"
       fy="271.25873"
       r="551"
       gradientTransform="matrix(0.72504537,0.06713304,-0.02515476,0.27167452,116.94277,49.419131)"
       gradientUnits="userSpaceOnUse" />
    <radialGradient
       inkscape:collect="always"
       xlink:href="#linearGradient6412"
       id="radialGradient6418"
       cx="114.55425"
       cy="328.0108"
       fx="114.55425"
       fy="328.0108"
       r="375.5"
       gradientTransform="matrix(0.97271038,0.23202266,-0.10386152,0.43541945,40.920839,139.98089)"
       gradientUnits="userSpaceOnUse" />
  </defs>
  <sodipodi:namedview
     id="base"
     pagecolor="#ffffff"
     bordercolor="#666666"
     borderopacity="1.0"
     inkscape:pageopacity="0.0"
     inkscape:pageshadow="2"
     inkscape:zoom="1"
     inkscape:cx="408.01328"
     inkscape:cy="162.26571"
     inkscape:document-units="px"
     inkscape:current-layer="layer1"
     showgrid="false"
     inkscape:window-width="1916"
     inkscape:window-height="1041"
     inkscape:window-x="0"
     inkscape:window-y="18"
     inkscape:window-maximized="0"
     inkscape:object-paths="true"
     inkscape:snap-intersection-paths="true"
     inkscape:object-nodes="true"
     inkscape:snap-smooth-nodes="true"
     inkscape:snap-midpoints="true"
     inkscape:snap-center="true"
     inkscape:snap-object-midpoints="true"
     inkscape:snap-page="true"
     inkscape:snap-bbox="true"
     inkscape:bbox-paths="true"
     inkscape:bbox-nodes="true"
     inkscape:snap-bbox-edge-midpoints="true"
     inkscape:snap-bbox-midpoints="true"
     fit-margin-top="0"
     fit-margin-left="0"
     fit-margin-right="0"
     fit-margin-bottom="0"
     inkscape:snap-global="false">
    <inkscape:grid
       type="xygrid"
       id="grid3892"
       empspacing="5"
       visible="true"
       enabled="true"
       snapvisiblegridlinesonly="true"
       spacingx="5px"
       spacingy="5px" />
  </sodipodi:namedview>
  <metadata
     id="metadata7">
    <rdf:RDF>
      <cc:Work
         rdf:about="">
        <dc:format>image/svg+xml</dc:format>
        <dc:type
           rdf:resource="http://purl.org/dc/dcmitype/StillImage" />
        <dc:title></dc:title>
      </cc:Work>
    </rdf:RDF>
  </metadata>
  <g
     inkscape:label="Layer 1"
     inkscape:groupmode="layer"
     id="layer1"
     transform="translate(1.71875,-0.625)">
    <g
       id="g6528">
      <path
         inkscape:connector-curvature="0"
         id="path3008"
         d="m 203.36486,583.78096 c 1.13642,2.14657 2.0203,0.75761 2.65165,5.17703 0.63134,4.41941 -1.01016,7.70241 -1.38896,10.6066 -0.37881,2.90419 1.01015,5.42957 1.38896,7.70241 0.3788,2.27285 -1.76777,10.2278 -5.17703,10.73287 -3.40927,0.50508 -10.60661,-2.39911 -9.84899,-5.42957 0.75761,-3.03045 1.6415,-6.18718 1.51523,-9.72272 -0.12627,-3.53553 -1.51523,-8.58629 -1.38896,-11.61675 0.12627,-3.03046 -0.25254,-9.59645 3.03045,-9.34391 3.283,0.25254 8.5863,0.12627 9.21765,1.89404 z"
         style="fill:#333333;stroke:#000000;stroke-width:1px;stroke-linecap:butt;stroke-linejoin:miter;stroke-opacity:1" />
      <path
         inkscape:connector-curvature="0"
         id="path2998"
         d="m 155.76142,559.66356 c -1.6415,0.37881 -3.40927,1.26269 -3.40927,2.14658 0,0.88388 3.03046,2.65165 2.52538,3.6618 -0.50507,1.01015 -2.0203,1.01015 -2.39911,2.02031 -0.37881,1.01015 -4.92449,5.6821 -4.92449,7.44987 0,1.76777 4.16688,5.80838 5.68211,5.80838 1.51523,0 6.06091,-3.78807 6.18718,-5.68211 0.12627,-1.89404 -2.90419,-4.92449 -2.39911,-5.80838 0.50507,-0.88388 4.54569,-2.77792 4.29315,-4.67195 -0.25254,-1.89404 -5.55584,-4.9245 -5.55584,-4.9245 z"
         style="fill:#808080;stroke:#000000;stroke-width:1px;stroke-linecap:butt;stroke-linejoin:miter;stroke-opacity:1" />
      <path
         inkscape:connector-curvature="0"
         id="path3006"
         d="m 188.33884,625.32348 c -2.14658,1.89403 -6.56599,5.17703 -10.48034,4.92449 -3.91434,-0.25254 -7.07106,-1.51523 -6.81852,-2.0203 0.25253,-0.50508 5.80837,-1.38896 7.3236,-2.90419 1.51523,-1.51523 5.05076,-4.16688 5.3033,-5.93465 0.25254,-1.76776 -2.39911,-11.49048 -0.12627,-12.2481 2.27285,-0.75761 9.34391,-3.91434 9.47018,-2.0203 0.12627,1.89403 -1.64149,8.83883 -1.89403,10.10152 -0.25254,1.26269 0.75761,5.3033 0.63134,6.69226 -0.12627,1.38896 -2.52538,3.15673 -3.40926,3.40927 z"
         style="fill:#333333;stroke:#000000;stroke-width:1px;stroke-linecap:butt;stroke-linejoin:miter;stroke-opacity:1" />
      <path
         sodipodi:nodetypes="csczc"
         style="fill:#4d4d4d;stroke:#000000;stroke-width:1px;stroke-linecap:butt;stroke-linejoin:miter;stroke-opacity:1"
         d="m 206.01651,607.267 c 0.3788,2.27285 -1.76777,10.2278 -5.17703,10.73287 -3.40927,0.50508 -10.60661,-2.39911 -9.84899,-5.42957 0,0 -0.37372,-3.75328 5.45676,-5.52087 5.83048,-1.76759 9.56926,0.21757 9.56926,0.21757 z"
         id="path3028"
         inkscape:connector-curvature="0" />
      <path
         inkscape:connector-curvature="0"
         id="path3004"
         d="m 194.52602,608.78223 c 0,0 3.78807,7.19734 3.6618,9.59645 -0.12626,2.39911 -1.51522,6.31345 0.75762,9.09137 2.27284,2.77792 5.05076,3.283 2.39911,4.54569 -2.65165,1.26269 -7.95495,5.42957 -10.98541,4.92449 -3.03045,-0.50507 -8.9651,-1.89403 -9.34391,-3.03045 -0.37881,-1.13643 2.65165,-1.6415 5.05076,-1.89404 2.39912,-0.25254 8.83884,-1.13642 8.71257,-2.77792 -0.12627,-1.6415 -4.41942,-7.19734 -6.06092,-8.9651 -1.64149,-1.76777 -4.92449,-3.15673 -5.3033,-6.43973 -0.3788,-3.28299 11.11168,-5.05076 11.11168,-5.05076 z"
         style="fill:#333333;stroke:#000000;stroke-width:1px;stroke-linecap:butt;stroke-linejoin:miter;stroke-opacity:1" />
      <path
         sodipodi:nodetypes="cssssccsssssssccsc"
         inkscape:connector-curvature="0"
         id="path2996"
         d="m 195.0311,610.04492 c 0.37881,-2.27284 6.43972,-21.71828 9.47018,-25.63262 3.03046,-3.91434 3.6618,-17.04632 1.76777,-19.57171 -1.89404,-2.52538 -6.81853,-8.83883 -14.89975,-9.21764 -8.08123,-0.3788 -16.28871,2.27285 -17.04633,1.89404 -0.75761,-0.37881 -3.6618,-5.55584 -8.33376,-5.42957 -2.65165,0.37881 -3.6618,3.91434 -4.67195,4.41942 -1.01016,0.50507 -5.42957,2.39911 -5.3033,3.40926 0.12627,1.01015 4.79822,1.26269 4.92449,4.54569 0.12627,3.28299 -3.40927,2.65165 -3.91434,4.16688 -0.50508,1.51523 2.87027,3.25617 2.27284,6.43972 -0.86953,4.63354 -5.80837,4.79822 -5.80837,5.55584 0,0.75761 9.84898,0.50507 10.10152,1.13642 0.25254,0.63135 1.89404,3.91434 5.3033,5.68211 3.40927,1.76777 10.2278,3.53553 10.6066,4.04061 0.37881,0.50507 -1.38896,10.98541 -1.38896,10.98541 0,0 -0.12627,4.41941 0.25254,5.55584 0.37881,1.13642 2.65165,6.18718 5.3033,6.31345"
         style="fill:#333333;stroke:#000000;stroke-width:1px;stroke-linecap:butt;stroke-linejoin:miter;stroke-opacity:1" />
      <path
         inkscape:connector-curvature="0"
         id="path3000"
         d="m 166.49429,565.09313 c 1.51522,0.88388 1.51522,2.65165 0.50507,3.283"
         style="fill:none;stroke:#999999;stroke-width:1px;stroke-linecap:butt;stroke-linejoin:miter;stroke-opacity:1" />
      <path
         sodipodi:nodetypes="csscsc"
         inkscape:connector-curvature="0"
         id="path3002"
         d="m 164.47398,582.7708 c 4.04061,-0.12627 7.95495,1.76777 9.09138,2.02031 1.13642,0.25254 5.6821,4.41942 5.80837,5.3033 0.12627,0.88388 0.12627,1.76777 0.12627,1.76777 0,0 -6.9448,-2.02031 -9.97525,-3.91435 -3.03046,-1.89403 -5.05077,-5.17703 -5.05077,-5.17703 z"
         style="fill:#999999;stroke:#000000;stroke-width:1px;stroke-linecap:butt;stroke-linejoin:miter;stroke-opacity:1" />
      <path
         sodipodi:nodetypes="csssssssssc"
         inkscape:connector-curvature="0"
         id="path3010"
         d="m 176.84836,582.13946 c -3.66181,4.92449 -3.53554,8.33376 -4.54569,12.6269 -1.01016,4.29315 -1.38896,9.72272 -2.39912,11.8693 -1.01015,2.14657 -5.17703,8.83883 -4.29314,12.12183 0.88388,3.28299 -0.37881,2.90419 4.54568,4.16688 4.9245,1.26269 10.10153,3.03045 11.23795,0.75761 1.13642,-2.27284 0.75761,-4.41942 1.26269,-8.33376 0.50508,-3.91434 4.41942,-13.76333 6.43972,-16.92005 0.9858,-1.54032 2.15037,-3.51415 3.51342,-9.57302 0.43201,-1.92037 1.90623,-7.65864 2.07806,-9.5137 0.39709,-4.28694 -1.48751,-7.97864 -1.80341,-9.8289"
         style="fill:#333333;stroke:#000000;stroke-width:1px;stroke-linecap:butt;stroke-linejoin:miter;stroke-opacity:1" />
      <path
         style="fill:#cccccc;stroke:none"
         d="m 153.99365,563.1991 c 1.6415,0.63134 3.6618,-0.12627 4.54569,0.3788 0.88388,0.50508 2.14657,1.6415 2.14657,1.6415 0,0 -1.76777,1.76777 -3.40926,1.26269 -1.6415,-0.50507 -1.89404,-0.3788 -2.14658,-1.01015 -0.25254,-0.63135 -1.13642,-2.27284 -1.13642,-2.27284 z"
         id="path3024"
         inkscape:connector-curvature="0" />
      <path
         inkscape:connector-curvature="0"
         id="path3016"
         d="m 156.56081,564.68932 c -0.0893,0.89285 -0.80357,0.625 -0.80357,0.625 0,0 0,-0.98215 0.80357,-0.625 z"
         style="fill:none;stroke:#333333;stroke-width:1px;stroke-linecap:butt;stroke-linejoin:miter;stroke-opacity:1" />
      <path
         inkscape:connector-curvature="0"
         id="path3012"
         d="m 153.99365,563.1991 c 1.6415,0.63134 3.6618,-0.12627 4.54569,0.3788 0.88388,0.50508 2.14657,1.6415 2.14657,1.6415 0,0 -1.76777,1.76777 -3.40926,1.26269 -1.6415,-0.50507 -1.89404,-0.3788 -2.14658,-1.01015 -0.25254,-0.63135 -1.13642,-2.27284 -1.13642,-2.27284 z"
         style="fill:none;stroke:#1a1a1a;stroke-width:1px;stroke-linecap:butt;stroke-linejoin:miter;stroke-opacity:1" />
      <path
         sodipodi:nodetypes="ccccc"
         inkscape:connector-curvature="0"
         id="path3014"
         d="m 154.98802,563.84623 2.54116,0.8681 1.51523,-0.37881 c 0,0 -1.38896,-1.01015 -2.27284,-0.88388 -0.88388,0.12626 -1.78355,0.39459 -1.78355,0.39459 z"
         style="fill:#1a1a1a;stroke:#1a1a1a;stroke-width:1px;stroke-linecap:butt;stroke-linejoin:miter;stroke-opacity:1" />
      <path
         inkscape:connector-curvature="0"
         id="path3018"
         d="m 163.33756,581.76065 c 0,0 5.93465,-1.51523 6.69226,-4.79822 0.75762,-3.283 -3.15672,-6.81853 -2.90419,-7.95496"
         style="fill:none;stroke:#000000;stroke-width:1px;stroke-linecap:butt;stroke-linejoin:miter;stroke-opacity:1" />
      <path
         inkscape:connector-curvature="0"
         id="path3020"
         d="m 174.1967,557.39072 c 1.01015,1.38896 1.51523,3.40926 1.51523,3.40926"
         style="fill:none;stroke:#000000;stroke-width:1px;stroke-linecap:butt;stroke-linejoin:miter;stroke-opacity:1" />
      <path
         sodipodi:nodetypes="csc"
         inkscape:connector-curvature="0"
         id="path3022"
         d="m 147.80647,575.4472 c 2.52538,0.63134 5.80837,0.75761 6.31345,0.63134 0.50508,-0.12627 2.02031,0.12627 2.02031,0.12627"
         style="fill:none;stroke:#000000;stroke-width:1px;stroke-linecap:butt;stroke-linejoin:miter;stroke-opacity:1" />
      <path
         style="fill:#666666;stroke:#000000;stroke-width:1px;stroke-linecap:butt;stroke-linejoin:miter;stroke-opacity:1"
         d="m 165.61041,618.75749 c 0.88388,3.28299 -0.37881,2.90419 4.54568,4.16688 4.9245,1.26269 10.10153,3.03045 11.23795,0.75761 0.9703,-1.94061 0.83598,-3.78917 1.09036,-6.72462 0.0436,-0.50255 0.0985,-1.03696 0.17233,-1.60914 0,0 -3.05231,7.43531 -7.34546,6.89866 -4.29315,-0.53664 -9.70086,-3.48939 -9.70086,-3.48939 z"
         id="path3026"
         inkscape:connector-curvature="0"
         sodipodi:nodetypes="csssczc" />
    </g>
    <g
       id="g6515">
      <path
         sodipodi:nodetypes="cscsccc"
         inkscape:connector-curvature="0"
         id="path3843"
         d="m 124.5129,593.27432 c 3.27037,1.85616 3.09359,2.56327 3.71231,3.62393 0.61872,1.06066 0.61871,2.91681 0.61871,2.91681 0,0 0,0.88389 -0.88388,0.88389 -0.88388,0 -0.61872,-1.32582 -0.88388,-2.03293 -0.17678,-1.14906 -0.61872,-1.32583 -1.23744,-2.20971 -0.44194,-0.26517 -1.32582,-3.18199 -1.32582,-3.18199 z"
         style="fill:#916f6f;stroke:#000000;stroke-width:1px;stroke-linecap:butt;stroke-linejoin:miter;stroke-opacity:1" />
      <path
         sodipodi:nodetypes="cssssssssssssssssssscc"
         inkscape:connector-curvature="0"
         id="path3839"
         d="m 71.49735,583.43696 c 0.875,3.375 0,7 4.875,7.25 4.875,0.25 26.125,-1.5 29.75,-1.25 3.625,0.25 15.25,-0.5 18.5,3.625 3.25,4.125 0.875,13.25 0.375,15 -0.5,1.75 -3,7 -3,9.875 0,2.875 -0.5,14.375 0,15.875 0.5,1.5 -1.375,2.5 -2.25,2.5 -0.875,0 -4,-0.125 -4.125,-1.375 -0.125,-1.25 1.75,-1.375 2.5,-2 0.75,-0.625 0.25,-15.75 -0.125,-16.875 -0.375,-1.125 -5.00152,-4.80454 -10.375,-3.625 -5.125,1.125 -12.125,3.375 -19.125,-0.25 -2.82994,-1.4655 -5.375,2.75 -5.5,3.5 -0.125,0.75 0.875,19.125 0.375,20 -0.5,0.875 -3.625,0.875 -4.25,0.375 -0.625,-0.5 0,-1.5 0.5,-2 0.5,-0.5 1.625,-0.5 1.625,-1.75 0,-1.25 -0.25,-18.875 -1.125,-19.875 -0.875,-1 -1.75,-5.5 -2.875,-6.75 -1.125,-1.25 -3.75,-4.625 -6.25,-5.375 z"
         style="fill:#784421;stroke:#000000;stroke-width:1px;stroke-linecap:butt;stroke-linejoin:miter;stroke-opacity:1" />
      <path
         sodipodi:nodetypes="csc"
         inkscape:connector-curvature="0"
         id="path3049"
         d="m 54.61034,591.36766 c -2.1087,13.34664 -1.76776,29.04189 9.34391,28.78935 11.11168,-0.25254 10.39004,-18.97875 10.03649,-30.46924"
         style="fill:#784421;stroke:#000000;stroke-width:1px;stroke-linecap:butt;stroke-linejoin:miter;stroke-opacity:1" />
      <path
         inkscape:connector-curvature="0"
         id="path3837"
         d="m 67.63926,586.72139 c -11.70152,0 -16.06637,-1.76555 -17.1808,-5.73803 -1.11443,-3.97249 -0.74296,-12.71195 -0.74296,-12.71195 0,0 0.18574,-0.97106 1.2073,-0.97106 1.02156,0 1.02156,1.67727 1.02156,2.38349 0,0.70623 0.0929,9.0043 0.46435,10.32847 0.37148,1.32416 2.78607,3.8842 7.42954,4.32559 4.64346,0.44139 7.52241,0.44139 7.52241,0.44139 z"
         style="fill:#ac9d93;stroke:#000000;stroke-width:1.02439129px;stroke-linecap:butt;stroke-linejoin:miter;stroke-opacity:1" />
      <path
         style="fill:#ac9d93;stroke:#000000;stroke-width:1px;stroke-linecap:butt;stroke-linejoin:miter;stroke-opacity:1"
         d="m 61.93395,586.99875 c 11.13693,0 15.29118,-1.76777 16.35184,-5.74524 1.06066,-3.97748 0.70711,-12.72792 0.70711,-12.72792 0,0 -0.17678,-0.97228 -1.14905,-0.97228 -0.97227,0 -0.97227,1.67938 -0.97227,2.38649 0,0.70711 -0.0884,9.01561 -0.44194,10.34144 -0.35356,1.32582 -2.65165,3.88908 -7.07107,4.33102 -4.41942,0.44195 -7.15946,0.44195 -7.15946,0.44195 z"
         id="path3835"
         inkscape:connector-curvature="0" />
      <path
         inkscape:connector-curvature="0"
         id="path3831"
         d="m 70.50762,586.46842 c 11.13693,0 15.29118,-1.76777 16.35184,-5.74524 1.06066,-3.97748 0.70711,-12.72792 0.70711,-12.72792 0,0 -0.17678,-0.97228 -1.14905,-0.97228 -0.97227,0 -0.97227,1.67938 -0.97227,2.38649 0,0.70711 -0.0884,9.01561 -0.44194,10.34144 -0.35356,1.32582 -2.65165,3.88908 -7.07107,4.33102 -4.41942,0.44195 -7.15946,0.44195 -7.15946,0.44195 z"
         style="fill:#ac9d93;stroke:#000000;stroke-width:1px;stroke-linecap:butt;stroke-linejoin:miter;stroke-opacity:1" />
      <path
         style="fill:#ac9d93;stroke:#000000;stroke-width:1.02439129px;stroke-linecap:butt;stroke-linejoin:miter;stroke-opacity:1"
         d="m 59.68431,586.45622 c -11.70152,0 -16.06637,-1.76555 -17.1808,-5.73803 -1.11443,-3.97249 -0.74296,-12.71195 -0.74296,-12.71195 0,0 0.18574,-0.97106 1.2073,-0.97106 1.02156,0 1.02156,1.67727 1.02156,2.38349 0,0.70623 0.0929,9.0043 0.46435,10.32847 0.37148,1.32416 2.78607,3.8842 7.42954,4.32559 4.64346,0.44139 7.52241,0.44139 7.52241,0.44139 z"
         id="path3833"
         inkscape:connector-curvature="0" />
      <path
         transform="translate(-129.33844,81.05334)"
         d="m 193.44422,508.01624 a 6.1871843,6.1871843 0 1 1 -12.37437,0 6.1871843,6.1871843 0 1 1 12.37437,0 z"
         sodipodi:ry="6.1871843"
         sodipodi:rx="6.1871843"
         sodipodi:cy="508.01624"
         sodipodi:cx="187.25703"
         id="path3051"
         style="fill:#ffffff;fill-opacity:1;stroke:#000000;stroke-width:1;stroke-miterlimit:4;stroke-dasharray:none"
         sodipodi:type="arc" />
      <path
         transform="translate(-116.61051,81.20486)"
         d="m 193.44422,508.01624 a 6.1871843,6.1871843 0 1 1 -12.37437,0 6.1871843,6.1871843 0 1 1 12.37437,0 z"
         sodipodi:ry="6.1871843"
         sodipodi:rx="6.1871843"
         sodipodi:cy="508.01624"
         sodipodi:cx="187.25703"
         id="path3057"
         style="fill:#ffffff;fill-opacity:1;stroke:#000000;stroke-width:1;stroke-miterlimit:4;stroke-dasharray:none"
         sodipodi:type="arc" />
      <path
         transform="translate(-130.75265,80.69978)"
         d="m 188.8859,507.31543 a 1.4584078,1.4584078 0 1 1 -2.91682,0 1.4584078,1.4584078 0 1 1 2.91682,0 z"
         sodipodi:ry="1.4584078"
         sodipodi:rx="1.4584078"
         sodipodi:cy="507.31543"
         sodipodi:cx="187.42749"
         id="path3827"
         style="fill:#ffe6d5;fill-opacity:1;stroke:#000000;stroke-width:1;stroke-miterlimit:4;stroke-dasharray:none"
         sodipodi:type="arc" />
      <path
         transform="translate(-117.75956,80.96495)"
         sodipodi:type="arc"
         style="fill:#ffe6d5;fill-opacity:1;stroke:#000000;stroke-width:1;stroke-miterlimit:4;stroke-dasharray:none"
         id="path3829"
         sodipodi:cx="187.42749"
         sodipodi:cy="507.31543"
         sodipodi:rx="1.4584078"
         sodipodi:ry="1.4584078"
         d="m 188.8859,507.31543 a 1.4584078,1.4584078 0 1 1 -2.91682,0 1.4584078,1.4584078 0 1 1 2.91682,0 z" />
    </g>
    <path
       style="fill:url(#radialGradient6364);stroke:#000000;stroke-width:1px;stroke-linecap:butt;stroke-linejoin:miter;stroke-opacity:1;fill-opacity:1.0"
       d="m -98,-29 c 9,-1 1033,-6 1033,-6 l -3,175 -309,110 c 0,0 -789,-100 -789,-106 0,-6 68,-173 68,-173 z"
       id="path6314"
       inkscape:connector-curvature="0"
       transform="translate(-1.71875,0.625)" />
    <path
       style="fill:url(#linearGradient6312);stroke:#000000;stroke-width:1px;stroke-linecap:butt;stroke-linejoin:miter;stroke-opacity:1;fill-opacity:1.0"
       d="M -88,109 C 77,69 226,53 311,63 396,73 615,125 675,122.5 735,120 859,103 900,102 c 41,-1 66,-11 66,-11 l 6,446 -1047,-8 z"
       id="path6302"
       inkscape:connector-curvature="0"
       transform="translate(-1.71875,0.625)" />
    <path
       style="fill:#c8beb7;stroke:#000000;stroke-width:1px;stroke-linecap:butt;stroke-linejoin:miter;stroke-opacity:1"
       d="m 598.28125,200.625 0,-75 100,25 0,75 z"
       id="path3884"
       inkscape:connector-curvature="0"
       sodipodi:nodetypes="ccccc" />
    <path
       style="fill:#a02c2c;stroke:#000000;stroke-width:1px;stroke-linecap:butt;stroke-linejoin:miter;stroke-opacity:1"
       d="m 598.28125,125.625 50,-30 105,-25 45,55 -100,25 z"
       id="path3886"
       inkscape:connector-curvature="0"
       sodipodi:nodetypes="cccccc" />
    <path
       style="fill:#917c6f;stroke:#000000;stroke-width:1px;stroke-linecap:butt;stroke-linejoin:miter;stroke-opacity:1"
       d="m 698.28125,225.625 100,-25 0,-75 -100,25 z"
       id="path3888"
       inkscape:connector-curvature="0"
       sodipodi:nodetypes="ccccc" />
    <path
       style="fill:#de8787;stroke:#000000;stroke-width:1px;stroke-linecap:butt;stroke-linejoin:miter;stroke-opacity:1"
       d="m 648.28125,95.625 50,55 -100,-25 z"
       id="path3894"
       inkscape:connector-curvature="0" />
    <path
       style="fill:#6c5353;stroke:#000000;stroke-width:1.06943941px;stroke-linecap:butt;stroke-linejoin:miter;stroke-opacity:1"
       d="m 638.28125,210.625 0,-30 20,5 0,30 z"
       id="path3896"
       inkscape:connector-curvature="0"
       sodipodi:nodetypes="ccccc" />
    <g
       id="g3904"
       transform="translate(225,-100)">
      <path
         transform="translate(-1.71875,0.625)"
         inkscape:connector-curvature="0"
         id="path3898"
         d="m 385,260 20,5 0,-20 -20,-5 z"
         style="fill:#e6e6e6;stroke:#000000;stroke-width:1px;stroke-linecap:butt;stroke-linejoin:miter;stroke-opacity:1" />
      <path
         transform="translate(-1.71875,0.625)"
         inkscape:connector-curvature="0"
         id="path3900"
         d="m 395,242.5 0,20"
         style="fill:none;stroke:#000000;stroke-width:1px;stroke-linecap:butt;stroke-linejoin:miter;stroke-opacity:1" />
      <path
         transform="translate(-1.71875,0.625)"
         inkscape:connector-curvature="0"
         id="path3902"
         d="M 385,250.75 405,255"
         style="fill:none;stroke:#000000;stroke-width:1px;stroke-linecap:butt;stroke-linejoin:miter;stroke-opacity:1" />
    </g>
    <g
       id="g3909"
       transform="translate(285,-84.875)">
      <path
         style="fill:#e6e6e6;stroke:#000000;stroke-width:1px;stroke-linecap:butt;stroke-linejoin:miter;stroke-opacity:1"
         d="m 385,260 20,5 0,-20 -20,-5 z"
         id="path3911"
         inkscape:connector-curvature="0"
         transform="translate(-1.71875,0.625)" />
      <path
         style="fill:none;stroke:#000000;stroke-width:1px;stroke-linecap:butt;stroke-linejoin:miter;stroke-opacity:1"
         d="m 395,242.5 0,20"
         id="path3913"
         inkscape:connector-curvature="0"
         transform="translate(-1.71875,0.625)" />
      <path
         style="fill:none;stroke:#000000;stroke-width:1px;stroke-linecap:butt;stroke-linejoin:miter;stroke-opacity:1"
         d="M 385,250.75 405,255"
         id="path3915"
         inkscape:connector-curvature="0"
         transform="translate(-1.71875,0.625)" />
    </g>
    <path
       style="fill:url(#radialGradient6418);fill-opacity:1;stroke:#554400"
       d="m 123.28125,150.625 375,125 -375,125 -375,-125 z"
       id="path6069"
       inkscape:connector-curvature="0"
       sodipodi:nodetypes="ccccc" />
    <path
       inkscape:connector-curvature="0"
       style="fill:#aa8800;fill-opacity:1;stroke:#554400"
       d="m -241.71875,272.28125 0,6.6875 10,3.3125 0,-13.3125 -10,3.3125 z"
       id="path6298" />
    <path
       inkscape:connector-curvature="0"
       style="fill:#aa8800;fill-opacity:1;stroke:#554400"
       d="m -221.71875,265.625 0,20 10,3.34375 0,-26.6875 -10,3.34375 z"
       id="path6294" />
    <path
       inkscape:connector-curvature="0"
       style="fill:#aa8800;fill-opacity:1;stroke:#554400"
       d="m -201.71875,258.96875 0,33.3125 10,3.34375 0,-40 -10,3.34375 z"
       id="path6290" />
    <path
       inkscape:connector-curvature="0"
       style="fill:#aa8800;fill-opacity:1;stroke:#554400"
       d="m -181.71875,252.28125 0,46.6875 10,3.3125 0,-53.3125 -10,3.3125 z"
       id="path6286" />
    <path
       inkscape:connector-curvature="0"
       style="fill:#aa8800;fill-opacity:1;stroke:#554400"
       d="m -161.71875,245.625 0,60 10,3.34375 0,-66.6875 -10,3.34375 z"
       id="path6282" />
    <path
       inkscape:connector-curvature="0"
       style="fill:#aa8800;fill-opacity:1;stroke:#554400"
       d="m -141.71875,238.96875 0,73.3125 10,3.34375 0,-80 -10,3.34375 z"
       id="path6278" />
    <path
       inkscape:connector-curvature="0"
       style="fill:#aa8800;fill-opacity:1;stroke:#554400"
       d="m -121.71875,232.28125 0,86.6875 10,3.3125 0,-93.3125 -10,3.3125 z"
       id="path6274" />
    <path
       inkscape:connector-curvature="0"
       style="fill:#aa8800;fill-opacity:1;stroke:#554400"
       d="m -101.71875,225.625 0,100 10,3.34375 0,-106.6875 -10,3.34375 z"
       id="path6270" />
    <path
       inkscape:connector-curvature="0"
       style="fill:#aa8800;fill-opacity:1;stroke:#554400"
       d="m -81.71875,218.96875 0,113.3125 10,3.34375 0,-120 -10,3.34375 z"
       id="path6266" />
    <path
       inkscape:connector-curvature="0"
       style="fill:#aa8800;fill-opacity:1;stroke:#554400"
       d="m -61.71875,212.28125 0,126.6875 10,3.3125 0,-133.3125 -10,3.3125 z"
       id="path6262" />
    <path
       inkscape:connector-curvature="0"
       style="fill:#aa8800;fill-opacity:1;stroke:#554400"
       d="m -41.71875,205.625 0,140 10,3.34375 0,-146.6875 -10,3.34375 z"
       id="path6258" />
    <path
       inkscape:connector-curvature="0"
       style="fill:#aa8800;fill-opacity:1;stroke:#554400"
       d="m -21.71875,198.96875 0,153.3125 10,3.34375 0,-160 -10,3.34375 z"
       id="path6254" />
    <path
       inkscape:connector-curvature="0"
       style="fill:#aa8800;fill-opacity:1;stroke:#554400"
       d="m -1.71875,192.28125 0,166.6875 10,3.3125 0,-173.3125 -10,3.3125 z"
       id="path6250" />
    <path
       inkscape:connector-curvature="0"
       style="fill:#aa8800;fill-opacity:1;stroke:#554400"
       d="m 18.28125,185.625 0,180 10,3.34375 0,-186.6875 -10,3.34375 z"
       id="path6246" />
    <path
       inkscape:connector-curvature="0"
       style="fill:#aa8800;fill-opacity:1;stroke:#554400"
       d="m 38.28125,178.96875 0,193.3125 10,3.34375 0,-200 -10,3.34375 z"
       id="path6242" />
    <path
       inkscape:connector-curvature="0"
       style="fill:#aa8800;fill-opacity:1;stroke:#554400"
       d="m 58.28125,172.28125 0,206.6875 10,3.3125 0,-213.3125 -10,3.3125 z"
       id="path6238" />
    <path
       inkscape:connector-curvature="0"
       style="fill:#aa8800;fill-opacity:1;stroke:#554400"
       d="m 78.28125,165.625 0,220 10,3.34375 0,-226.6875 -10,3.34375 z"
       id="path6234" />
    <path
       inkscape:connector-curvature="0"
       style="fill:#aa8800;fill-opacity:1;stroke:#554400"
       d="m 98.28125,158.96875 0,233.3125 10,3.34375 0,-240 -10,3.34375 z"
       id="path6230" />
    <path
       inkscape:connector-curvature="0"
       style="fill:#aa8800;fill-opacity:1;stroke:#554400"
       d="m 118.28125,152.28125 0,246.6875 5,1.65625 5,-1.65625 0,-246.6875 -5,-1.65625 -5,1.65625 z"
       id="path6226" />
    <path
       inkscape:connector-curvature="0"
       style="fill:#aa8800;fill-opacity:1;stroke:#554400"
       d="m 138.28125,155.625 0,240 10,-3.34375 0,-233.3125 -10,-3.34375 z"
       id="path6222" />
    <path
       inkscape:connector-curvature="0"
       style="fill:#aa8800;fill-opacity:1;stroke:#554400"
       d="m 158.28125,162.28125 0,226.6875 10,-3.34375 0,-220 -10,-3.34375 z"
       id="path6218" />
    <path
       inkscape:connector-curvature="0"
       style="fill:#aa8800;fill-opacity:1;stroke:#554400"
       d="m 178.28125,168.96875 0,213.3125 10,-3.3125 0,-206.6875 -10,-3.3125 z"
       id="path6214" />
    <path
       inkscape:connector-curvature="0"
       style="fill:#aa8800;fill-opacity:1;stroke:#554400"
       d="m 198.28125,175.625 0,200 10,-3.34375 0,-193.3125 -10,-3.34375 z"
       id="path6210" />
    <path
       inkscape:connector-curvature="0"
       style="fill:#aa8800;fill-opacity:1;stroke:#554400"
       d="m 218.28125,182.28125 0,186.6875 10,-3.34375 0,-180 -10,-3.34375 z"
       id="path6206" />
    <path
       inkscape:connector-curvature="0"
       style="fill:#aa8800;fill-opacity:1;stroke:#554400"
       d="m 238.28125,188.96875 0,173.3125 10,-3.3125 0,-166.6875 -10,-3.3125 z"
       id="path6202" />
    <path
       inkscape:connector-curvature="0"
       style="fill:#aa8800;fill-opacity:1;stroke:#554400"
       d="m 258.28125,195.625 0,160 10,-3.34375 0,-153.3125 -10,-3.34375 z"
       id="path6198" />
    <path
       inkscape:connector-curvature="0"
       style="fill:#aa8800;fill-opacity:1;stroke:#554400"
       d="m 278.28125,202.28125 0,146.6875 10,-3.34375 0,-140 -10,-3.34375 z"
       id="path6194" />
    <path
       inkscape:connector-curvature="0"
       style="fill:#aa8800;fill-opacity:1;stroke:#554400"
       d="m 298.28125,208.96875 0,133.3125 10,-3.3125 0,-126.6875 -10,-3.3125 z"
       id="path6190" />
    <path
       inkscape:connector-curvature="0"
       style="fill:#aa8800;fill-opacity:1;stroke:#554400"
       d="m 318.28125,215.625 0,120 10,-3.34375 0,-113.3125 -10,-3.34375 z"
       id="path6186" />
    <path
       inkscape:connector-curvature="0"
       style="fill:#aa8800;fill-opacity:1;stroke:#554400"
       d="m 338.28125,222.28125 0,106.6875 10,-3.34375 0,-100 -10,-3.34375 z"
       id="path6182" />
    <path
       inkscape:connector-curvature="0"
       style="fill:#aa8800;fill-opacity:1;stroke:#554400"
       d="m 358.28125,228.96875 0,93.3125 10,-3.3125 0,-86.6875 -10,-3.3125 z"
       id="path6178" />
    <path
       inkscape:connector-curvature="0"
       style="fill:#aa8800;fill-opacity:1;stroke:#554400"
       d="m 378.28125,235.625 0,80 10,-3.34375 0,-73.3125 -10,-3.34375 z"
       id="path6174" />
    <path
       inkscape:connector-curvature="0"
       style="fill:#aa8800;fill-opacity:1;stroke:#554400"
       d="m 398.28125,242.28125 0,66.6875 10,-3.34375 0,-60 -10,-3.34375 z"
       id="path6170" />
    <path
       inkscape:connector-curvature="0"
       style="fill:#aa8800;fill-opacity:1;stroke:#554400"
       d="m 418.28125,248.96875 0,53.3125 10,-3.3125 0,-46.6875 -10,-3.3125 z"
       id="path6166" />
    <path
       inkscape:connector-curvature="0"
       style="fill:#aa8800;fill-opacity:1;stroke:#554400"
       d="m 438.28125,255.625 0,40 10,-3.34375 0,-33.3125 -10,-3.34375 z"
       id="path6162" />
    <path
       inkscape:connector-curvature="0"
       style="fill:#aa8800;fill-opacity:1;stroke:#554400"
       d="m 458.28125,262.28125 0,26.6875 10,-3.34375 0,-20 -10,-3.34375 z"
       id="path6158" />
    <path
       inkscape:connector-curvature="0"
       style="fill:#aa8800;fill-opacity:1;stroke:#554400"
       d="m 478.28125,268.96875 0,13.3125 10,-3.3125 0,-6.6875 -10,-3.3125 z"
       id="path6154" />
    <path
       style="fill:#666666;stroke:#333333;stroke-width:1px;stroke-linecap:butt;stroke-linejoin:miter;stroke-opacity:1"
       d="M 75.040663,76.259766 C 84.556331,74.797307 202,96 251,120 c 49,24 130,79 191,104 61,25 267,68 318,97 51,29 211.00177,141.79818 211.00177,141.79818 L 1001,418 C 1001,418 842,305 789,280 736,255 515,207 482,193 449,179 318,112 285,99 252,86 154.87652,65.802824 154.87652,65.802824 z"
       id="path6366"
       inkscape:connector-curvature="0"
       transform="translate(-1.71875,0.625)"
       sodipodi:nodetypes="csssccssscc" />
    <path
       style="fill:none;stroke:#000000;stroke-width:0.26190478px;stroke-linecap:butt;stroke-linejoin:miter;stroke-opacity:1"
       d="m 645.6622,199.97024 5.2381,1.30953 0,1.30952 -5.2381,-1.30952 z"
       id="path6368"
       inkscape:connector-curvature="0" />
    <path
       inkscape:connector-curvature="0"
       id="path6370"
       d="m 640.6622,194.97023 2.61905,0.65477 0,0.65475 -2.61905,-0.65475 z"
       style="fill:#000000;stroke:#000000;stroke-width:0.13095239000000000px;stroke-linecap:butt;stroke-linejoin:miter;stroke-opacity:1" />
    <path
       style="fill:#000000;stroke:#000000;stroke-width:0.131;stroke-linecap:butt;stroke-linejoin:miter;stroke-opacity:1;stroke-miterlimit:4;stroke-dasharray:none"
       d="m 642.38095,195 0.8734,-0.43642 0,-0.77396 -0.8734,0.55561 z"
       id="path6372"
       inkscape:connector-curvature="0"
       transform="translate(-1.71875,0.625)" />
    <path
       style="fill:none;stroke:#ffffff;stroke-width:1;stroke-linecap:butt;stroke-linejoin:miter;stroke-miterlimit:4;stroke-opacity:1;stroke-dasharray:8, 4;stroke-dashoffset:0"
       d="M 123.10094,71.196234 C 184.26591,79.873518 245,100 261,108 c 16,8 182,94 205,103 23,9 279,73 302,86 23,13 217,142 217,142"
       id="path6420"
       inkscape:connector-curvature="0"
       transform="translate(-1.71875,0.625)"
       sodipodi:nodetypes="csssc" />
    <g
       id="g6558">
      <path
         style="fill:#6c5353;stroke:#000000;stroke-width:0.63829219000000004px;stroke-linecap:butt;stroke-linejoin:miter;stroke-opacity:1"
         d="m 780.3341,201.7605 c 2.08745,1.18477 1.97461,1.63611 2.36954,2.31312 0.39492,0.67701 0.39491,1.86178 0.39491,1.86178 0,0 0,0.56418 -0.56417,0.56418 -0.56417,0 -0.39492,-0.84626 -0.56417,-1.2976 -0.11284,-0.73344 -0.39493,-0.84627 -0.78985,-1.41045 -0.28209,-0.16925 -0.84626,-2.03103 -0.84626,-2.03103 z"
         id="path6422"
         inkscape:connector-curvature="0"
         sodipodi:nodetypes="cscsccc" />
      <path
         style="fill:#784421;stroke:#000000;stroke-width:0.63829219px;stroke-linecap:butt;stroke-linejoin:miter;stroke-opacity:1"
         d="m 746.49469,195.48139 c 0.5585,2.15423 0,4.46804 3.11167,4.62761 3.11168,0.15958 16.67538,-0.95743 18.98919,-0.79786 2.31381,0.15957 9.73396,-0.31915 11.80841,2.31381 2.07445,2.63295 0.5585,8.45737 0.23936,9.57438 -0.31915,1.11701 -1.91488,4.46805 -1.91488,6.30314 0,1.83509 -0.31914,9.17545 0,10.13288 0.31915,0.95744 -0.87765,1.59573 -1.43616,1.59573 -0.5585,0 -2.55316,-0.0798 -2.63295,-0.87765 -0.0798,-0.79786 1.11701,-0.87765 1.59573,-1.27658 0.47872,-0.39893 0.15957,-10.0531 -0.0798,-10.77118 -0.23936,-0.71808 -3.19243,-3.0667 -6.62228,-2.31381 -3.27125,0.71808 -7.73929,2.15423 -12.20734,-0.15957 -1.80632,-0.93542 -3.43082,1.7553 -3.5106,2.23402 -0.0798,0.47872 0.5585,12.20734 0.23936,12.76584 -0.31915,0.55851 -2.31381,0.55851 -2.71275,0.23936 -0.39893,-0.31914 0,-0.95744 0.31915,-1.27658 0.31915,-0.31915 1.03723,-0.31915 1.03723,-1.11701 0,-0.79787 -0.15958,-12.04777 -0.71808,-12.68606 -0.55851,-0.63829 -1.11701,-3.51061 -1.83509,-4.30847 -0.71808,-0.79787 -2.3936,-2.9521 -3.98933,-3.43082 z"
         id="path6424"
         inkscape:connector-curvature="0"
         sodipodi:nodetypes="cssssssssssssssssssscc" />
      <path
         style="fill:#784421;stroke:#000000;stroke-width:0.63829219px;stroke-linecap:butt;stroke-linejoin:miter;stroke-opacity:1"
         d="m 735.71584,200.54349 c -1.34597,8.51906 -1.12835,18.53721 5.96414,18.37602 7.0925,-0.1612 6.51221,-10.55815 6.28654,-17.89244"
         id="path6426"
         inkscape:connector-curvature="0"
         sodipodi:nodetypes="csc" />
      <path
         style="fill:#ac9d93;stroke:#000000;stroke-width:0.65386099px;stroke-linecap:butt;stroke-linejoin:miter;stroke-opacity:1"
         d="m 744.0321,197.57781 c -7.46899,0 -10.25504,-1.12694 -10.96637,-3.66254 -0.71133,-2.53561 -0.47423,-8.11394 -0.47423,-8.11394 0,0 0.11856,-0.61982 0.77061,-0.61982 0.65206,0 0.65206,1.07059 0.65206,1.52137 0,0.45078 0.0593,5.74737 0.29639,6.59258 0.23711,0.8452 1.77832,2.47925 4.74221,2.76099 2.96389,0.28173 4.8015,0.28173 4.8015,0.28173 z"
         id="path6428"
         inkscape:connector-curvature="0" />
      <path
         inkscape:connector-curvature="0"
         id="path6430"
         d="m 740.39044,197.75485 c 7.10862,0 9.76024,-1.12836 10.43725,-3.66714 0.67702,-2.5388 0.45135,-8.12414 0.45135,-8.12414 0,0 -0.11284,-0.62059 -0.73343,-0.62059 -0.62059,0 -0.62059,1.07193 -0.62059,1.52327 0,0.45135 -0.0564,5.7546 -0.28209,6.60086 -0.22568,0.84626 -1.69253,2.48237 -4.51341,2.76446 -2.82088,0.28209 -4.56983,0.28209 -4.56983,0.28209 z"
         style="fill:#ac9d93;stroke:#000000;stroke-width:0.63829219px;stroke-linecap:butt;stroke-linejoin:miter;stroke-opacity:1" />
      <path
         style="fill:#ac9d93;stroke:#000000;stroke-width:0.63829219px;stroke-linecap:butt;stroke-linejoin:miter;stroke-opacity:1"
         d="m 745.86295,197.41634 c 7.10861,0 9.76024,-1.12835 10.43725,-3.66714 0.67701,-2.53879 0.45134,-8.12413 0.45134,-8.12413 0,0 -0.11283,-0.6206 -0.73343,-0.6206 -0.62059,0 -0.62059,1.07194 -0.62059,1.52328 0,0.45134 -0.0564,5.75459 -0.28208,6.60086 -0.22568,0.84626 -1.69253,2.48237 -4.51341,2.76445 -2.82088,0.2821 -4.56983,0.2821 -4.56983,0.2821 z"
         id="path6432"
         inkscape:connector-curvature="0" />
      <path
         inkscape:connector-curvature="0"
         id="path6434"
         d="m 738.95452,197.40856 c -7.46899,0 -10.25504,-1.12694 -10.96638,-3.66254 -0.71133,-2.53561 -0.47422,-8.11394 -0.47422,-8.11394 0,0 0.11856,-0.61982 0.77061,-0.61982 0.65205,0 0.65205,1.07059 0.65205,1.52136 0,0.45078 0.0593,5.74737 0.29639,6.59258 0.23712,0.8452 1.77833,2.47926 4.74222,2.76099 2.96389,0.28174 4.8015,0.28174 4.8015,0.28174 z"
         style="fill:#ac9d93;stroke:#000000;stroke-width:0.65386099px;stroke-linecap:butt;stroke-linejoin:miter;stroke-opacity:1" />
      <path
         sodipodi:type="arc"
         style="fill:#ffffff;fill-opacity:1;stroke:#000000;stroke-width:1;stroke-miterlimit:4;stroke-dasharray:none"
         id="path6436"
         sodipodi:cx="187.25703"
         sodipodi:cy="508.01624"
         sodipodi:rx="6.1871843"
         sodipodi:ry="6.1871843"
         d="m 193.44422,508.01624 a 6.1871843,6.1871843 0 1 1 -12.37437,0 6.1871843,6.1871843 0 1 1 12.37437,0 z"
         transform="matrix(0.63829218,0,0,0.63829218,618.30276,-125.18616)" />
      <path
         sodipodi:type="arc"
         style="fill:#ffffff;fill-opacity:1;stroke:#000000;stroke-width:1;stroke-miterlimit:4;stroke-dasharray:none"
         id="path6438"
         sodipodi:cx="187.25703"
         sodipodi:cy="508.01624"
         sodipodi:rx="6.1871843"
         sodipodi:ry="6.1871843"
         d="m 193.44422,508.01624 a 6.1871843,6.1871843 0 1 1 -12.37437,0 6.1871843,6.1871843 0 1 1 12.37437,0 z"
         transform="matrix(0.63829218,0,0,0.63829218,626.4269,-125.08945)" />
      <path
         sodipodi:type="arc"
         style="fill:#ffe6d5;fill-opacity:1;stroke:#000000;stroke-width:1;stroke-miterlimit:4;stroke-dasharray:none"
         id="path6440"
         sodipodi:cx="187.42749"
         sodipodi:cy="507.31543"
         sodipodi:rx="1.4584078"
         sodipodi:ry="1.4584078"
         d="m 188.8859,507.31543 a 1.4584078,1.4584078 0 1 1 -2.91682,0 1.4584078,1.4584078 0 1 1 2.91682,0 z"
         transform="matrix(0.63829218,0,0,0.63829218,617.40009,-125.41183)" />
      <path
         d="m 188.8859,507.31543 a 1.4584078,1.4584078 0 1 1 -2.91682,0 1.4584078,1.4584078 0 1 1 2.91682,0 z"
         sodipodi:ry="1.4584078"
         sodipodi:rx="1.4584078"
         sodipodi:cy="507.31543"
         sodipodi:cx="187.42749"
         id="path6442"
         style="fill:#ffe6d5;fill-opacity:1;stroke:#000000;stroke-width:1;stroke-miterlimit:4;stroke-dasharray:none"
         sodipodi:type="arc"
         transform="matrix(0.63829218,0,0,0.63829218,625.69347,-125.24258)" />
    </g>
  </g>
</svg>
