<?xml version="1.0" encoding="UTF-8" standalone="no"?>
<!-- Created with Inkscape (http://www.inkscape.org/) -->

<svg
   xmlns:dc="http://purl.org/dc/elements/1.1/"
   xmlns:cc="http://creativecommons.org/ns#"
   xmlns:rdf="http://www.w3.org/1999/02/22-rdf-syntax-ns#"
   xmlns:svg="http://www.w3.org/2000/svg"
   xmlns="http://www.w3.org/2000/svg"
   xmlns:sodipodi="http://sodipodi.sourceforge.net/DTD/sodipodi-0.dtd"
   xmlns:inkscape="http://www.inkscape.org/namespaces/inkscape"
   width="13.245875mm"
   height="15.278654mm"
   viewBox="0 0 46.934204 54.136963"
   id="svg4909"
   version="1.1"
   inkscape:version="0.91 r"
   sodipodi:docname="hej.svg">
  <defs
     id="defs4911" />
  <sodipodi:namedview
     id="base"
     pagecolor="#ffffff"
     bordercolor="#666666"
     borderopacity="1.0"
     inkscape:pageopacity="0.0"
     inkscape:pageshadow="2"
     inkscape:zoom="3.959798"
     inkscape:cx="5.4415525"
     inkscape:cy="-32.438424"
     inkscape:document-units="px"
     inkscape:current-layer="layer1"
     showgrid="false"
     fit-margin-top="0"
     fit-margin-left="0"
     fit-margin-right="0"
     fit-margin-bottom="0"
     inkscape:window-width="1920"
     inkscape:window-height="1056"
     inkscape:window-x="0"
     inkscape:window-y="24"
     inkscape:window-maximized="1" />
  <metadata
     id="metadata4914">
    <rdf:RDF>
      <cc:Work
         rdf:about="">
        <dc:format>image/svg+xml</dc:format>
        <dc:type
           rdf:resource="http://purl.org/dc/dcmitype/StillImage" />
        <dc:title></dc:title>
      </cc:Work>
    </rdf:RDF>
  </metadata>
  <g
     inkscape:label="Layer 1"
     inkscape:groupmode="layer"
     id="layer1"
     transform="translate(-187.79178,-241.97194)">
    <path
       style="fill:#916f6f;stroke:#000000;stroke-width:1px;stroke-linecap:butt;stroke-linejoin:miter;stroke-opacity:1"
       d="m 334.50282,324.78675 c 3.27037,1.85616 3.09359,2.56327 3.71231,3.62393 0.61872,1.06066 0.61871,2.91681 0.61871,2.91681 0,0 0,0.88389 -0.88388,0.88389 -0.88388,0 -0.61872,-1.32582 -0.88388,-2.03293 -0.17678,-1.14906 -0.61872,-1.32583 -1.23744,-2.20971 -0.44194,-0.26517 -1.32582,-3.18199 -1.32582,-3.18199 z"
       id="path3843"
       inkscape:connector-curvature="0"
       sodipodi:nodetypes="cscsccc" />
    <path
       style="fill:#784421;stroke:#000000;stroke-width:1px;stroke-linecap:butt;stroke-linejoin:miter;stroke-opacity:1"
       d="m 279.21443,313.18162 c 0.875,3.375 0,7 4.875,7.25 4.875,0.25 26.125,-1.5 29.75,-1.25 3.625,0.25 15.25,-0.5 18.5,3.625 3.25,4.125 0.875,13.25 0.375,15 -0.5,1.75 -3,7 -3,9.875 0,2.875 -0.5,14.375 0,15.875 0.5,1.5 -1.375,2.5 -2.25,2.5 -0.875,0 -4,-0.125 -4.125,-1.375 -0.125,-1.25 1.75,-1.375 2.5,-2 0.75,-0.625 0.25,-15.75 -0.125,-16.875 -0.375,-1.125 -5.00152,-4.80454 -10.375,-3.625 -5.125,1.125 -12.125,3.375 -19.125,-0.25 -2.82994,-1.4655 -5.375,2.75 -5.5,3.5 -0.125,0.75 0.875,19.125 0.375,20 -0.5,0.875 -3.625,0.875 -4.25,0.375 -0.625,-0.5 0,-1.5 0.5,-2 0.5,-0.5 1.625,-0.5 1.625,-1.75 0,-1.25 -0.25,-18.875 -1.125,-19.875 -0.875,-1 -1.75,-5.5 -2.875,-6.75 -1.125,-1.25 -3.75,-4.625 -6.25,-5.375 z"
       id="path3839"
       inkscape:connector-curvature="0"
       sodipodi:nodetypes="cssssssssssssssssssscc" />
    <path
       style="fill:#784421;stroke:#000000;stroke-width:1px;stroke-linecap:butt;stroke-linejoin:miter;stroke-opacity:1"
       d="m 201.21319,266.81662 c -2.1087,13.34664 -1.76776,29.04189 9.34391,28.78935 11.11168,-0.25254 10.39004,-18.97875 10.03649,-30.46924"
       id="path3049"
       inkscape:connector-curvature="0"
       sodipodi:nodetypes="csc" />
    <path
       style="fill:#ac9d93;stroke:#000000;stroke-width:1.02439129px;stroke-linecap:butt;stroke-linejoin:miter;stroke-opacity:1"
       d="m 214.24211,262.17035 c -11.70152,0 -16.06637,-1.76555 -17.1808,-5.73803 -1.11443,-3.97249 -0.74296,-12.71195 -0.74296,-12.71195 0,0 0.18574,-0.97106 1.2073,-0.97106 1.02156,0 1.02156,1.67727 1.02156,2.38349 0,0.70623 0.0929,9.0043 0.46435,10.32847 0.37148,1.32416 2.78607,3.8842 7.42954,4.32559 4.64346,0.44139 7.52241,0.44139 7.52241,0.44139 z"
       id="path3837"
       inkscape:connector-curvature="0" />
    <path
       inkscape:connector-curvature="0"
       id="path3835"
       d="m 208.5368,262.44771 c 11.13693,0 15.29118,-1.76777 16.35184,-5.74524 1.06066,-3.97748 0.70711,-12.72792 0.70711,-12.72792 0,0 -0.17678,-0.97228 -1.14905,-0.97228 -0.97227,0 -0.97227,1.67938 -0.97227,2.38649 0,0.70711 -0.0884,9.01561 -0.44194,10.34144 -0.35356,1.32582 -2.65165,3.88908 -7.07107,4.33102 -4.41942,0.44195 -7.15946,0.44195 -7.15946,0.44195 z"
       style="fill:#ac9d93;stroke:#000000;stroke-width:1px;stroke-linecap:butt;stroke-linejoin:miter;stroke-opacity:1" />
    <path
       style="fill:#ac9d93;stroke:#000000;stroke-width:1px;stroke-linecap:butt;stroke-linejoin:miter;stroke-opacity:1"
       d="m 217.11047,261.91738 c 11.13693,0 15.29118,-1.76777 16.35184,-5.74524 1.06066,-3.97748 0.70711,-12.72792 0.70711,-12.72792 0,0 -0.17678,-0.97228 -1.14905,-0.97228 -0.97227,0 -0.97227,1.67938 -0.97227,2.38649 0,0.70711 -0.0884,9.01561 -0.44194,10.34144 -0.35356,1.32582 -2.65165,3.88908 -7.07107,4.33102 -4.41942,0.44195 -7.15946,0.44195 -7.15946,0.44195 z"
       id="path3831"
       inkscape:connector-curvature="0" />
    <path
       inkscape:connector-curvature="0"
       id="path3833"
       d="m 206.28716,261.90518 c -11.70152,0 -16.06637,-1.76555 -17.1808,-5.73803 -1.11443,-3.97249 -0.74296,-12.71195 -0.74296,-12.71195 0,0 0.18574,-0.97106 1.2073,-0.97106 1.02156,0 1.02156,1.67727 1.02156,2.38349 0,0.70623 0.0929,9.0043 0.46435,10.32847 0.37148,1.32416 2.78607,3.8842 7.42954,4.32559 4.64346,0.44139 7.52241,0.44139 7.52241,0.44139 z"
       style="fill:#ac9d93;stroke:#000000;stroke-width:1.02439129px;stroke-linecap:butt;stroke-linejoin:miter;stroke-opacity:1" />
    <circle
       r="6.1871843"
       cy="264.51852"
       cx="204.52145"
       style="fill:#ffffff;fill-opacity:1;stroke:#000000;stroke-width:1;stroke-miterlimit:4;stroke-dasharray:none"
       id="path3051" />
    <circle
       r="6.1871843"
       cy="264.67004"
       cx="217.24937"
       style="fill:#ffffff;fill-opacity:1;stroke:#000000;stroke-width:1;stroke-miterlimit:4;stroke-dasharray:none"
       id="path3057" />
    <circle
       r="1.4584078"
       cy="263.46417"
       cx="203.27769"
       style="fill:#ffe6d5;fill-opacity:1;stroke:#000000;stroke-width:1;stroke-miterlimit:4;stroke-dasharray:none"
       id="path3827" />
    <circle
       r="1.4584078"
       cy="263.72934"
       cx="216.27078"
       id="path3829"
       style="fill:#ffe6d5;fill-opacity:1;stroke:#000000;stroke-width:1;stroke-miterlimit:4;stroke-dasharray:none" />
  </g>
</svg>
